<svg id="Layer_1" data-name="Layer 1" xmlns="http://www.w3.org/2000/svg" viewBox="0 0 551.94 551.94"><defs><style>.cls-1{fill:#5367FF;}.cls-2{fill:#00F3BB;}</style></defs><path class="cls-1" d="M215,400.48s24.53-23.48,36.91-21c0,0,15.28,2.75,87.92,47.31,0,0,27.05,19.63,54.71-12.21L556.33,264C511,173.59,417.51,111.53,309.5,111.53c-152.41,0-276,123.56-276,276A274.72,274.72,0,0,0,67.94,521Z" transform="translate(-33.53 -111.53)"/><path class="cls-2" d="M378.11,120.13c2.82.72,5.62,1.5,8.41,2.31C383.73,121.63,380.93,120.85,378.11,120.13Z" transform="translate(-33.53 -111.53)"/><path class="cls-2" d="M330,112.29q4.41.33,8.76.79Q334.44,112.62,330,112.29Z" transform="translate(-33.53 -111.53)"/><path class="cls-2" d="M415.12,132.48q8.07,3.36,15.9,7.2Q423.21,135.84,415.12,132.48Z" transform="translate(-33.53 -111.53)"/><path class="cls-2" d="M406.33,129c2.37.88,4.72,1.81,7.07,2.76C411.05,130.83,408.7,129.9,406.33,129Z" transform="translate(-33.53 -111.53)"/><path class="cls-2" d="M388.43,123q3.48,1,6.92,2.16Q391.92,124,388.43,123Z" transform="translate(-33.53 -111.53)"/><path class="cls-2" d="M369.61,118.12c2.58.57,5.15,1.17,7.7,1.82C374.76,119.29,372.19,118.69,369.61,118.12Z" transform="translate(-33.53 -111.53)"/><path class="cls-2" d="M350.1,114.51c2.89.43,5.76.89,8.62,1.4C355.86,115.4,353,114.94,350.1,114.51Z" transform="translate(-33.53 -111.53)"/><path class="cls-2" d="M359.75,116.11q3.83.7,7.62,1.52Q363.57,116.82,359.75,116.11Z" transform="translate(-33.53 -111.53)"/><path class="cls-2" d="M396.94,125.69q4.14,1.38,8.22,2.88Q401.08,127.07,396.94,125.69Z" transform="translate(-33.53 -111.53)"/><path class="cls-2" d="M472.45,164.77q7.24,5.31,14.12,11.07Q479.7,170.08,472.45,164.77Z" transform="translate(-33.53 -111.53)"/><path class="cls-2" d="M487.13,176.31q3.38,2.85,6.65,5.78Q490.51,179.15,487.13,176.31Z" transform="translate(-33.53 -111.53)"/><path class="cls-2" d="M309.5,111.53c3,0,6,.07,9,.16C315.51,111.6,312.51,111.53,309.5,111.53Z" transform="translate(-33.53 -111.53)"/><path class="cls-2" d="M432.51,140.42q3.62,1.8,7.17,3.7Q436.13,142.21,432.51,140.42Z" transform="translate(-33.53 -111.53)"/><path class="cls-2" d="M507.2,195q-6.42-6.58-13.27-12.76Q500.77,188.39,507.2,195Z" transform="translate(-33.53 -111.53)"/><path class="cls-2" d="M456.78,154.1q7.55,4.77,14.75,10Q464.33,158.88,456.78,154.1Z" transform="translate(-33.53 -111.53)"/><path class="cls-2" d="M440.26,144.43q3.93,2.12,7.79,4.37Q444.2,146.55,440.26,144.43Z" transform="translate(-33.53 -111.53)"/><path class="cls-2" d="M449,149.33c2.3,1.35,4.59,2.74,6.85,4.16C453.55,152.07,451.26,150.68,449,149.33Z" transform="translate(-33.53 -111.53)"/><path class="cls-2" d="M340.86,113.32c2.35.26,4.69.56,7,.88C345.55,113.88,343.21,113.58,340.86,113.32Z" transform="translate(-33.53 -111.53)"/><path class="cls-2" d="M44.68,465.33c-.71-2.43-1.4-4.88-2-7.34C43.28,460.45,44,462.9,44.68,465.33Z" transform="translate(-33.53 -111.53)"/><path class="cls-2" d="M67.94,521q-6.11-11-11.2-22.62Q61.84,510,67.94,521Z" transform="translate(-33.53 -111.53)"/><path class="cls-2" d="M53.31,490.24q-3.14-7.82-5.81-15.86Q50.17,482.42,53.31,490.24Z" transform="translate(-33.53 -111.53)"/><path class="cls-2" d="M47.27,473.67c-.77-2.34-1.5-4.69-2.21-7.05C45.77,469,46.5,471.33,47.27,473.67Z" transform="translate(-33.53 -111.53)"/><path class="cls-2" d="M56.52,497.88q-1.64-3.74-3.17-7.54Q54.88,494.15,56.52,497.88Z" transform="translate(-33.53 -111.53)"/><path class="cls-2" d="M547.32,247.45q4.78,8.1,9,16.54L394.51,414.57c-27.66,31.84-54.71,12.21-54.71,12.21-72.64-44.56-87.92-47.31-87.92-47.31-12.38-2.47-36.91,21-36.91,21L67.94,521C115,606,205.52,663.47,309.5,663.47c152.41,0,276-123.56,276-276A274.69,274.69,0,0,0,547.32,247.45Z" transform="translate(-33.53 -111.53)"/><path class="cls-2" d="M547.23,247.3a276.57,276.57,0,0,0-27.07-38.05A276.57,276.57,0,0,1,547.23,247.3Z" transform="translate(-33.53 -111.53)"/><path class="cls-2" d="M519.91,209q-6-7-12.35-13.6Q514,202,519.91,209Z" transform="translate(-33.53 -111.53)"/><path class="cls-2" d="M37,431.14q-.57-3.56-1-7.16Q36.41,427.58,37,431.14Z" transform="translate(-33.53 -111.53)"/><path class="cls-2" d="M34,404.09c-.11-1.94-.21-3.89-.28-5.85C33.83,400.2,33.93,402.15,34,404.09Z" transform="translate(-33.53 -111.53)"/><path class="cls-2" d="M35.81,423.07q-.53-4.06-.93-8.16Q35.28,419,35.81,423.07Z" transform="translate(-33.53 -111.53)"/><path class="cls-2" d="M34.71,413q-.28-3.09-.5-6.19Q34.42,409.87,34.71,413Z" transform="translate(-33.53 -111.53)"/><path class="cls-2" d="M33.66,395.74c-.08-2.74-.13-5.48-.13-8.24C33.53,390.26,33.58,393,33.66,395.74Z" transform="translate(-33.53 -111.53)"/><path class="cls-2" d="M42.49,457.45q-1.08-4.11-2-8.27Q41.41,453.34,42.49,457.45Z" transform="translate(-33.53 -111.53)"/><path class="cls-2" d="M321,111.79c2.46.1,4.9.23,7.34.39C325.85,112,323.41,111.89,321,111.79Z" transform="translate(-33.53 -111.53)"/><path class="cls-2" d="M40.41,449c-.57-2.52-1.1-5.06-1.61-7.61C39.31,443.9,39.84,446.44,40.41,449Z" transform="translate(-33.53 -111.53)"/><path class="cls-2" d="M38.43,439.43q-.59-3.09-1.11-6.2Q37.85,436.34,38.43,439.43Z" transform="translate(-33.53 -111.53)"/></svg>